<svg width="103" height="103" viewBox="0 0 103 103" fill="none" xmlns="http://www.w3.org/2000/svg">
<path d="M51.5 103C79.9427 103 103 79.9427 103 51.5C103 23.0573 79.9427 0 51.5 0C23.0573 0 0 23.0573 0 51.5C0 79.9427 23.0573 103 51.5 103Z" fill="url(#paint0_radial_530_104)"/>
<path opacity="0.3" d="M51.5 103C79.9427 103 103 79.9427 103 51.5C103 23.0573 79.9427 0 51.5 0C23.0573 0 0 23.0573 0 51.5C0 79.9427 23.0573 103 51.5 103Z" fill="url(#paint1_radial_530_104)"/>
<defs>
<radialGradient id="paint0_radial_530_104" cx="0" cy="0" r="1" gradientUnits="userSpaceOnUse" gradientTransform="translate(65.2743 22.1751) rotate(-172.091) scale(75.9878)">
<stop stop-color="#C2CAFF"/>
<stop offset="1" stop-color="#2F4FFF"/>
</radialGradient>
<radialGradient id="paint1_radial_530_104" cx="0" cy="0" r="1" gradientUnits="userSpaceOnUse" gradientTransform="translate(59.9665 34.5677) rotate(-172.091) scale(73.5713)">
<stop stop-color="white" stop-opacity="0"/>
<stop offset="0.082" stop-color="#F4F4F4" stop-opacity="0.0859"/>
<stop offset="0.2252" stop-color="#D7D7D7" stop-opacity="0.2358"/>
<stop offset="0.4125" stop-color="#A9A9A9" stop-opacity="0.432"/>
<stop offset="0.6368" stop-color="#686868" stop-opacity="0.6668"/>
<stop offset="0.8897" stop-color="#161616" stop-opacity="0.9317"/>
<stop offset="0.9549"/>
</radialGradient>
</defs>
</svg>
