<svg width="230" height="229" viewBox="0 0 230 229" fill="none" xmlns="http://www.w3.org/2000/svg">
<g clip-path="url(#clip0_530_125)">
<mask id="mask0_530_125" style="mask-type:luminance" maskUnits="userSpaceOnUse" x="-1044" y="-522" width="1790" height="1346">
<path d="M745.064 221.043L-742.628 823.796L-1043.6 80.9453L444.091 -521.807L745.064 221.043Z" fill="white"/>
</mask>
<g mask="url(#mask0_530_125)">
<path fill-rule="evenodd" clip-rule="evenodd" d="M189.752 74.6922L200.346 100.841L188.276 123.2L186.478 135.862L192.001 160.606L174.685 182.842L149.356 183.592L137.455 188.414L118.748 205.506L90.8377 201.593L77.4306 180.044L67.3264 172.203L43.2456 164.491L32.6514 138.343L44.633 116.193L46.4303 103.53L41.0567 78.7258L58.3725 56.4898L83.7011 55.7404L95.6026 50.9184L114.31 33.8263L142.22 37.7386L155.478 59.3484L165.582 67.1888L189.752 74.6922ZM157.113 103.137C148.023 80.7025 122.53 69.9305 100.066 79.0321C77.7501 88.0733 66.944 113.552 76.0334 135.987C85.0626 158.272 110.556 169.044 132.872 160.003C155.336 150.901 166.142 125.422 157.113 103.137Z" fill="url(#paint0_radial_530_125)"/>
<path fill-rule="evenodd" clip-rule="evenodd" d="M188.609 64.6047L199.564 91.6444L187.079 114.69L185.254 127.71L190.928 153.257L172.989 176.092L146.856 176.994L134.657 181.937L115.266 199.479L86.4922 195.571L72.6353 173.339L62.262 165.261L37.4056 157.344L26.4502 130.305L38.7861 107.319L40.6118 94.2992L35.086 68.6917L52.9651 45.7086L79.1578 44.955L91.3569 40.0124L110.687 22.3218L139.522 26.3785L153.23 48.6709L163.603 56.7481L188.609 64.6047ZM154.96 93.9769C145.57 70.8 119.3 59.8234 96.0924 69.2264C73.0332 78.569 61.8126 104.735 71.2029 127.912C80.5331 150.94 106.863 162.065 129.922 152.723C153.13 143.32 164.29 117.005 154.96 93.9769Z" fill="url(#paint1_linear_530_125)"/>
<path d="M43.2455 164.491L37.4058 157.344L62.2621 165.261L67.3263 172.203L43.2455 164.491Z" fill="#3C42B9"/>
<path d="M118.747 205.505L115.266 199.479L134.657 181.937L137.455 188.413L118.747 205.505Z" fill="#3C42B9"/>
<path d="M200.345 100.84L199.564 91.6442L187.079 114.69L188.275 123.199L200.345 100.84Z" fill="#3C42B9"/>
<path d="M192 160.606L190.928 153.257L172.989 176.092L174.685 182.842L192 160.606Z" fill="#3C42B9"/>
<g style="mix-blend-mode:soft-light">
<path d="M134.657 181.937C134.657 181.937 118.937 193.149 113.822 195.913C108.707 198.677 86.4922 195.571 86.4922 195.571L115.266 199.479L134.657 181.937Z" fill="#F2F0F5"/>
</g>
<g style="mix-blend-mode:soft-light">
<path d="M146.856 176.994L172.989 176.092L190.928 153.258C190.928 153.258 176.691 170.268 172.082 173C167.414 175.583 146.856 176.994 146.856 176.994Z" fill="#F2F0F5"/>
</g>
<g style="mix-blend-mode:soft-light">
<path d="M199.564 91.6443L188.608 64.6045C188.608 64.6045 196.359 87.5811 195.869 91.9304C195.38 96.2796 187.079 114.69 187.079 114.69L199.564 91.6443Z" fill="#F2F0F5"/>
</g>
<g style="mix-blend-mode:soft-light">
<path d="M62.262 165.261L37.4056 157.344L26.4502 130.305C26.4502 130.305 35.795 149.522 40.8523 154.737C46.1185 160.041 62.262 165.261 62.262 165.261Z" fill="#F2F0F5"/>
</g>
</g>
</g>
<defs>
<radialGradient id="paint0_radial_530_125" cx="0" cy="0" r="1" gradientUnits="userSpaceOnUse" gradientTransform="translate(445.002 548.998) rotate(-22.0558) scale(7395.16 7014.6)">
<stop stop-color="#3C42B9"/>
<stop offset="0.97" stop-color="#0B4CA1"/>
</radialGradient>
<linearGradient id="paint1_linear_530_125" x1="133.438" y1="138.47" x2="-6658.86" y2="-16626" gradientUnits="userSpaceOnUse">
<stop stop-color="#71AEFF"/>
<stop offset="1" stop-color="#FF5973"/>
</linearGradient>
<clipPath id="clip0_530_125">
<rect width="176.568" height="174.728" fill="white" transform="translate(0 66.3027) rotate(-22.0558)"/>
</clipPath>
</defs>
</svg>
